<svg width="1252" height="700" viewBox="0 0 1252 700" fill="none" xmlns="http://www.w3.org/2000/svg">
<g clip-path="url(#clip0)">
<rect width="1252" height="700" fill="#34332E"/>
<path d="M995.209 272.397C988.369 252.867 978.7 242.262 968.138 236.335C957.903 230.591 947.029 229.371 937.826 228.339C937.615 228.316 937.405 228.292 937.195 228.269C932.466 227.737 928.27 227.239 924.677 226.237C921.113 225.243 918.333 223.801 916.33 221.509C912.398 217.01 910.774 208.399 914.462 190.519C1000.73 161.403 1091.4 198.903 1117.69 273.961C1124.72 294.032 1141.97 303.926 1161.87 309.409C1176.77 313.513 1193.52 315.236 1209.06 316.834C1214.21 317.363 1219.22 317.878 1223.99 318.462C1233.66 319.645 1242.32 321.102 1249.27 323.466C1256.23 325.836 1261.17 329.017 1263.78 333.436C1266.36 337.795 1266.94 343.804 1264.18 352.436C1261.44 360.986 1255.51 371.872 1245.44 385.773C1202.5 400.285 1146.73 391.016 1098.14 368.456C1049.3 345.778 1008.37 309.978 995.209 272.397Z" fill="#34319C" stroke="black" stroke-width="4"/>
<path d="M1015.48 270.246C1009.59 253.427 1001.19 242.395 991.873 234.822C982.568 227.259 972.401 223.19 963.053 220.216C960.242 219.322 957.47 218.517 954.826 217.748C953.101 217.248 951.431 216.762 949.839 216.278C945.763 215.039 942.131 213.789 939.093 212.237C936.06 210.688 933.673 208.864 932.038 206.507C930.511 204.306 929.593 201.571 929.486 198.016C958.028 188.464 991.45 193.955 1020.72 210.086C1050.21 226.342 1075.37 253.344 1086.95 286.398C1092.95 303.548 1109.87 312.816 1130.11 318.427C1147.06 323.127 1166.61 325.33 1184.59 327.356C1188.11 327.752 1191.57 328.142 1194.93 328.542C1205.24 329.768 1214.69 331.092 1222.45 333.003C1230.24 334.923 1236.14 337.397 1239.53 340.808C1241.2 342.491 1242.25 344.392 1242.63 346.583C1243.01 348.785 1242.72 351.357 1241.58 354.39C1239.31 360.427 1233.74 368.103 1223.88 377.915C1161.81 377.837 1111.03 360.01 1078.53 341.401C1059.14 330.304 1046.55 321.485 1037.23 310.984C1027.91 300.498 1021.79 288.269 1015.48 270.246Z" fill="#01ADE3" fill-opacity="0.72" stroke="black" stroke-width="2"/>
<path d="M735.079 669.692C714.222 661.565 704.656 646.75 702.581 629.569C700.487 612.233 706.017 592.368 715.689 574.471C725.356 556.584 739.053 540.864 753.036 531.786C767.063 522.68 780.917 520.498 791.457 528.61C796.964 532.849 799.891 536.82 801.082 540.506C802.259 544.151 801.8 547.707 800.141 551.279C798.466 554.888 795.582 558.474 791.985 562.061C788.394 565.642 784.171 569.148 779.883 572.624C779.202 573.176 778.519 573.727 777.836 574.278C774.246 577.177 770.677 580.059 767.539 582.9C763.815 586.274 760.583 589.691 758.594 593.151C756.585 596.646 755.765 600.334 757.157 604.078C758.521 607.745 761.894 611.142 767.496 614.383C778.277 620.622 794.859 634.431 813.502 652.149C832.113 669.836 852.681 691.324 871.416 712.83C890.157 734.344 907.029 755.837 918.27 773.538C923.895 782.395 928.072 790.243 930.379 796.633C931.533 799.828 932.199 802.603 932.367 804.922C932.535 807.246 932.197 809.005 931.461 810.276C930.684 811.619 929.796 812.257 928.834 812.494C927.816 812.745 926.472 812.607 924.71 811.903C921.151 810.482 916.551 807.025 910.927 801.881C903.835 795.396 895.404 786.511 885.743 776.332C880.119 770.406 874.079 764.042 867.645 757.456C832.868 721.864 786.846 680.115 735.079 669.692Z" fill="#613683" stroke="black" stroke-width="3"/>
<path d="M742.445 652.562C727.273 646.455 720.048 635.003 718.184 621.514C716.303 607.896 719.896 592.166 726.545 577.879C733.193 563.597 742.804 550.953 752.732 543.473C762.712 535.954 772.501 533.96 780.096 539.697C784.094 542.717 785.817 545.665 786.161 548.473C786.51 551.312 785.492 554.348 783.291 557.618C778.849 564.215 770.118 571.008 761.056 577.792C760.331 578.335 759.605 578.877 758.879 579.419C755.116 582.228 751.379 585.018 748.017 587.744C744.013 590.989 740.458 594.211 737.971 597.353C735.509 600.464 733.896 603.744 734.256 607.053C734.626 610.443 736.994 613.336 741.249 615.798C757.29 625.08 794.142 655.325 825.753 685.559C841.543 700.662 855.961 715.7 865.774 728.049C870.687 734.232 874.398 739.681 876.559 744.09C877.64 746.296 878.301 748.176 878.554 749.714C878.808 751.257 878.63 752.312 878.222 753.018C877.729 753.869 877.222 754.2 876.741 754.318C876.209 754.448 875.432 754.386 874.311 753.912C872.031 752.946 869.03 750.584 865.276 746.978C860.8 742.68 855.526 736.893 849.455 730.233C845.376 725.758 840.938 720.889 836.142 715.813C812.466 690.753 780.435 661.059 742.445 652.562Z" fill="#AF76DC" stroke="black" stroke-width="3"/>
<path d="M778 58.5C778 112.903 733.958 157 679.635 157C672.754 157 667.712 156.626 664.116 155.901C660.464 155.165 658.641 154.131 657.787 153.107C657.036 152.207 656.763 150.974 657.227 148.933C657.703 146.838 658.885 144.245 660.612 141.023C661.558 139.258 662.646 137.345 663.82 135.282C671.096 122.494 681.635 103.968 681.635 79.5285C681.635 65.3483 678.1 50.5853 673.751 36.5325C671.656 29.7605 669.36 23.1179 667.165 16.7686C667.08 16.5223 666.995 16.2766 666.91 16.0312C664.634 9.44485 662.484 3.19329 660.767 -2.61682C659.049 -8.43162 657.787 -13.7302 657.264 -18.4047C656.741 -23.0919 656.979 -27.0043 658.128 -30.1255C659.251 -33.1765 661.283 -35.5827 664.623 -37.2694C668.027 -38.989 672.876 -40 679.635 -40C733.958 -40 778 4.09741 778 58.5Z" fill="#FF9900" fill-opacity="0.94" stroke="black" stroke-width="4"/>
<path d="M758 68.5C758 103.049 730.465 131 696.57 131C692.239 131 689.112 130.76 686.913 130.31C684.66 129.849 683.715 129.232 683.336 128.77C683.053 128.426 682.859 127.887 683.126 126.692C683.406 125.446 684.112 123.854 685.202 121.79C685.791 120.673 686.473 119.456 687.211 118.14C691.809 109.939 698.57 97.8788 698.57 81.9959C698.57 72.7909 696.311 63.2371 693.556 54.1979C692.229 49.8406 690.774 45.5678 689.388 41.4953C689.334 41.3362 689.28 41.1774 689.226 41.0188C687.787 36.7892 686.433 32.7919 685.353 29.0807C684.272 25.3649 683.487 22.0087 683.163 19.067C682.838 16.1125 682.996 13.7213 683.671 11.8592C684.321 10.0666 685.482 8.66605 687.424 7.6699C689.431 6.64056 692.364 6 696.57 6C730.465 6 758 33.9505 758 68.5Z" fill="#FFC700" fill-opacity="0.89" stroke="black" stroke-width="4"/>
<path d="M980.328 -2.11058C1011.68 24.9577 1017.73 68.7752 994.45 95.7347C988.56 102.557 984.063 104.541 980.27 104.039C976.337 103.519 972.487 100.281 968.064 94.8659C965.395 91.5991 962.669 87.7435 959.68 83.5171C957.736 80.7682 955.681 77.8625 953.458 74.8599C947.877 67.3176 941.364 59.3487 933.286 52.3742C925.208 45.3997 916.374 40.1183 908.099 35.6962C904.804 33.9358 901.63 32.3265 898.627 30.8041C894.01 28.4634 889.798 26.3281 886.176 24.1644C880.174 20.5779 876.409 17.2415 875.321 13.4266C874.272 9.74757 875.579 5.0093 881.469 -1.81286C904.746 -28.7724 948.977 -29.1788 980.328 -2.11058Z" fill="#33A60B" fill-opacity="0.61" stroke="black" stroke-width="3"/>
<path d="M967.944 2.19454C979.929 12.5423 987.993 25.0315 991.392 36.797C994.796 48.5786 993.484 59.4319 987.079 66.8504C985.461 68.7249 983.997 69.8282 982.667 70.389C981.369 70.936 980.128 70.9984 978.849 70.6637C976.156 69.9584 973.217 67.4787 969.672 63.5041C967.539 61.1117 965.31 58.3289 962.867 55.2782C961.278 53.2938 959.597 51.1961 957.794 49.0188C953.263 43.5497 948.058 37.7145 941.881 32.3812C935.704 27.0478 929.172 22.7491 923.1 19.0646C920.683 17.5978 918.363 16.2415 916.168 14.9586C912.794 12.9862 909.716 11.1871 907.038 9.42543C902.589 6.49882 899.707 3.95242 898.616 1.39065C898.099 0.174895 897.98 -1.06251 898.332 -2.42583C898.692 -3.8234 899.57 -5.43292 901.189 -7.30744C907.594 -14.7259 918.14 -17.6059 930.292 -15.9567C942.427 -14.3097 955.959 -8.15319 967.944 2.19454Z" fill="#7AF44E" fill-opacity="0.61" stroke="black" stroke-width="3"/>
<path d="M1185.58 588.246C1185.58 619.086 1163.56 639.57 1132.67 652.416C1101.81 665.252 1062.53 670.246 1029.1 670.246C996.013 670.246 960.414 653.453 937.815 627.327C915.297 601.294 905.766 566.119 924.35 529.06C929.757 522.318 934.324 518.099 938.276 515.78C942.207 513.473 945.465 513.079 948.376 513.878C951.359 514.697 954.213 516.83 957.165 520.052C960.111 523.268 963.029 527.426 966.187 532.106C966.792 533.003 967.406 533.918 968.029 534.848C980.286 553.142 996.298 577.039 1029.1 577.039C1046.04 577.039 1064.43 573.836 1082.4 570.065C1087.88 568.914 1093.33 567.711 1098.68 566.528C1110.92 563.822 1122.69 561.219 1133.48 559.57C1149.02 557.192 1162.09 556.875 1171.23 560.855C1175.74 562.82 1179.29 565.831 1181.73 570.205C1184.19 574.603 1185.58 580.48 1185.58 588.246Z" fill="#FC0C9C" fill-opacity="0.82" stroke="black" stroke-width="3"/>
<path d="M1166.5 606C1166.5 617.51 1161.56 626.106 1153.36 632.609C1145.09 639.161 1133.48 643.594 1120.23 646.568C1093.8 652.5 1061.44 652.5 1037.67 652.5H1037.5C1014.14 652.5 981.617 640.819 958.296 622.027C946.652 612.645 937.403 601.57 932.702 589.413C928.033 577.342 927.816 564.137 934.293 550.276C938.089 545.219 941.388 542.14 944.301 540.507C947.18 538.894 949.679 538.691 952.025 539.397C954.447 540.125 956.864 541.87 959.412 544.465C961.953 547.053 964.512 550.367 967.252 554.082C967.955 555.035 968.67 556.014 969.397 557.011C974.293 563.719 979.788 571.248 986.519 577.345C994.297 584.391 1003.83 589.628 1016.18 589.628C1028.16 589.628 1043.69 587.724 1060.12 585.647C1060.86 585.554 1061.59 585.461 1062.33 585.368C1078.15 583.365 1094.74 581.265 1109.97 580.531C1125.95 579.761 1140.21 580.512 1150.43 584.328C1155.52 586.227 1159.51 588.853 1162.24 592.35C1164.95 595.828 1166.5 600.278 1166.5 606Z" fill="#E179E3" stroke="black" stroke-width="3"/>
<path d="M1092.62 -49.9513C1114.66 -54.1936 1132.09 -42.452 1145.23 -23.7366C1158.38 -5.01054 1167 20.4205 1171.29 42.6813C1175.49 64.514 1166.7 91.8103 1149.45 111.837C1132.26 131.784 1106.89 144.272 1078.01 137.082C1072.51 134.429 1069.08 131.933 1067.13 129.583C1065.22 127.28 1064.74 125.131 1065.15 122.97C1065.57 120.705 1066.99 118.256 1069.25 115.521C1071.5 112.803 1074.45 109.947 1077.76 106.849C1078.39 106.26 1079.04 105.662 1079.69 105.056C1085.82 99.3444 1092.78 92.8697 1097.92 85.3402C1103.64 76.9572 1107.19 67.1452 1104.94 55.4516C1102.75 44.0862 1098.06 32.214 1093.04 20.7436C1091.5 17.2278 1089.93 13.7558 1088.38 10.3445C1084.87 2.56315 1081.5 -4.90192 1078.93 -11.8494C1075.22 -21.8849 1073.38 -30.4176 1075.02 -36.8923C1075.83 -40.0676 1077.49 -42.7687 1080.26 -44.9508C1083.05 -47.1525 1087.05 -48.8804 1092.62 -49.9513Z" fill="#FC0C0C" fill-opacity="0.78" stroke="black" stroke-width="3"/>
<path d="M1114.63 -24.8269C1126.02 -27.0199 1137.17 -20.8485 1146.3 -10.3247C1155.39 0.167469 1162.2 14.7016 1164.84 28.4221C1166.1 34.98 1164.27 44.881 1160.11 56.082C1155.97 67.2143 1149.61 79.3898 1142.09 90.3882C1134.56 101.397 1125.92 111.148 1117.25 117.497C1108.61 123.832 1100.23 126.576 1092.96 124.32C1090.2 122.691 1088.97 120.986 1088.58 119.31C1088.18 117.567 1088.61 115.501 1089.92 113.025C1092.58 108.017 1098.35 102.225 1104.98 95.7722C1105.45 95.3178 1105.92 94.8604 1106.39 94.4004C1112.55 88.4214 1119.17 81.9872 1124.08 75.4066C1129.34 68.3485 1132.88 60.7853 1131.41 53.1612C1130.04 46.0054 1126.81 37.6917 1123.2 29.2704C1121.87 26.1914 1120.5 23.1029 1119.14 20.0395C1116.75 14.6542 1114.4 9.3465 1112.4 4.3044C1109.27 -3.62928 1107.18 -10.5823 1107.27 -15.7659C1107.31 -18.3244 1107.89 -20.3085 1109 -21.7629C1110.1 -23.1972 1111.86 -24.2941 1114.63 -24.8269Z" fill="#EE7474" stroke="black" stroke-width="3"/>
<path d="M79.6218 98.3542C65.0902 87.5947 47.3978 82.848 29.9699 80.6787C16.5757 79.0115 3.16961 78.8536 -8.62019 78.7147C-12.1455 78.6731 -15.5264 78.6333 -18.7191 78.5553C-25.7062 78.3847 -31.7527 78.0341 -36.5572 77.1265C-41.4298 76.2059 -44.614 74.7816 -46.3033 72.802C-47.852 70.9872 -48.4841 68.2733 -47.1286 63.7363C-45.7569 59.145 -42.4345 53.0423 -36.5817 44.968C10.0707 -19.3927 92.9403 -37.6321 148.418 3.44458C203.895 44.5213 211.673 129.878 165.02 194.238C159.168 202.313 154.412 207.354 150.494 210.06C146.623 212.734 143.872 212.943 141.693 211.998C139.316 210.967 137.012 208.328 134.675 203.91C132.37 199.554 130.216 193.833 127.949 187.151C126.913 184.098 125.856 180.852 124.754 177.467C121.068 166.148 116.877 153.277 111.266 140.872C103.965 124.732 94.1534 109.114 79.6218 98.3542Z" fill="#A638EA" fill-opacity="0.71" stroke="black" stroke-width="4"/>
<path d="M87.449 78.6629C77.905 71.5964 66.5331 68.0904 55.3616 66.1737C46.7774 64.7009 38.2399 64.1576 30.7115 63.6786C28.4562 63.5351 26.2914 63.3974 24.2431 63.2421C19.7765 62.9036 15.8812 62.484 12.7539 61.7561C9.59891 61.0217 7.39928 60.0103 6.1548 58.6181C4.98235 57.3065 4.52231 55.496 5.23959 52.739C5.96965 49.933 7.89811 46.2667 11.3713 41.4752C39.0345 3.31169 91.4729 -5.35658 128.486 22.0488C165.499 49.4542 173.132 102.6 145.468 140.763C141.995 145.555 139.118 148.519 136.691 150.068C134.306 151.591 132.459 151.693 130.869 150.959C129.18 150.179 127.563 148.364 125.919 145.546C124.289 142.751 122.719 139.124 121.053 134.922C120.289 132.995 119.506 130.95 118.691 128.82C115.969 121.71 112.883 113.647 108.905 105.818C103.729 95.631 96.9929 85.7295 87.449 78.6629Z" fill="#F88DFA" stroke="black" stroke-width="2"/>
<path d="M424.575 115.647C417.504 124.337 409.747 129.586 401.702 132.135C393.621 134.696 385.146 134.567 376.628 132.334C359.545 127.857 342.398 114.942 328.393 98.6639C314.4 82.399 303.699 62.9538 299.396 45.6559C295.071 28.2695 297.308 13.6402 308.245 6.10272C313.942 2.17656 319.144 0.297845 323.951 -0.132853C328.755 -0.563263 333.268 0.443021 337.603 2.44966C346.353 6.50007 354.229 14.5391 362.042 22.8009C362.484 23.2689 362.927 23.7378 363.369 24.2068C370.619 31.8891 377.888 39.5908 385.59 43.4947C389.733 45.5949 394.087 46.6474 398.694 45.9879C403.293 45.3294 407.976 42.9881 412.827 38.6048C422.074 30.2476 438.418 19.7275 458.14 8.97354C477.834 -1.76462 500.798 -12.6835 523.217 -21.8518C545.647 -31.0244 567.477 -38.4227 584.913 -42.146C593.638 -44.0091 601.192 -44.9363 607.139 -44.7333C613.158 -44.5278 617.176 -43.176 619.259 -40.8706C620.28 -39.7415 620.635 -38.6545 620.558 -37.5462C620.477 -36.3759 619.901 -34.9868 618.667 -33.3465C616.184 -30.0439 611.435 -26.2367 604.789 -21.8695C595.742 -15.9252 583.532 -9.16112 569.552 -1.41643C563.042 2.19019 556.148 6.00946 549.01 10.0576C504.312 35.4098 450.337 69.5941 424.575 115.647Z" fill="#E21212" fill-opacity="0.91" stroke="black" stroke-width="3"/>
<path d="M410.223 104.455C405.093 110.691 399.531 114.48 393.815 116.367C388.067 118.264 382.068 118.27 376.05 116.787C363.968 113.811 351.889 104.844 342.061 93.4026C332.245 81.9738 324.828 68.2529 321.958 56.0142C319.07 43.7032 320.863 33.4295 328.606 28.0458C332.686 25.2097 336.218 24.0677 339.322 24.0415C342.417 24.0152 345.257 25.0973 347.962 27.0186C353.466 30.9286 358.135 38.0947 362.784 45.5769C363.09 46.0695 363.396 46.5632 363.701 47.0568C365.686 50.2595 367.667 53.4582 369.683 56.3321C372.006 59.6442 374.441 62.6247 377.083 64.7521C379.74 66.8918 382.704 68.2436 386.034 68.0976C389.351 67.9521 392.755 66.3323 396.327 63.1048C409.827 50.9042 445.524 29.0201 479.707 12.1159C496.78 3.67308 513.389 -3.48399 526.578 -7.5538C533.181 -9.5913 538.852 -10.8311 543.259 -11.0973C547.776 -11.37 550.494 -10.5911 551.767 -9.18314C552.407 -8.47469 552.598 -7.82488 552.542 -7.16397C552.48 -6.43483 552.098 -5.50498 551.215 -4.34537C549.437 -2.00893 546.032 0.739409 541.216 3.93727C534.668 8.28455 525.849 13.2507 515.737 18.9451C511.021 21.6007 506.024 24.4145 500.845 27.3979C468.497 46.0318 429.298 71.1337 410.223 104.455Z" fill="#F34545" stroke="black" stroke-width="3"/>
<path d="M578.545 211.482C588.732 222.457 595.418 236.107 597.82 248.576C600.236 261.119 598.264 272.066 591.744 278.118C585.174 284.217 575.162 285.68 564.019 282.74C552.896 279.806 540.875 272.524 530.665 261.525C520.454 250.526 514.085 237.996 511.985 226.687C509.882 215.356 512.085 205.48 518.654 199.381C531.951 187.038 558.093 189.45 578.545 211.482Z" fill="#FD5B00" fill-opacity="0.96" stroke="black" stroke-width="3"/>
<path d="M572.829 225.007C580.138 232.882 585.182 242.432 587.288 250.984C589.423 259.653 588.441 266.773 584.528 270.406C580.565 274.084 574.097 274.759 566.465 272.319C558.883 269.895 550.491 264.476 543.161 256.579C535.83 248.682 531.05 239.911 529.196 232.17C527.329 224.378 528.483 217.978 532.446 214.299C536.514 210.522 542.844 209.198 550.141 210.86C557.423 212.519 565.525 217.14 572.829 225.007Z" fill="#FBA06E" fill-opacity="0.81" stroke="black" stroke-width="3"/>
<path d="M501.535 680.226L501.55 680.083L501.545 679.938C500.302 645.712 491.764 620.299 480.148 600.718C468.54 581.152 453.916 567.508 440.661 556.754C436.86 553.671 433.085 550.758 429.548 548.029C427.001 546.065 424.578 544.195 422.359 542.427C416.941 538.109 412.51 534.22 409.447 530.345C406.406 526.499 404.823 522.806 404.871 518.848C404.917 515.078 406.447 510.764 410.2 505.551C424.321 507.033 437.752 507.641 450.061 508.198C452.521 508.309 454.936 508.418 457.302 508.532C471.893 509.234 484.575 510.107 494.859 512.629C505.118 515.145 512.7 519.234 517.395 526.152C522.105 533.091 524.166 543.253 522.521 558.476C521.614 566.857 525.037 576.293 530.85 586.158C536.694 596.075 545.136 606.727 554.714 617.627C563.67 627.819 573.679 638.294 583.572 648.648C584.266 649.374 584.96 650.1 585.652 650.825C596.231 661.902 606.582 672.805 615.354 683.114C624.141 693.441 631.25 703.064 635.414 711.57C639.606 720.133 640.587 727.092 637.961 732.443C635.333 737.8 628.714 742.312 615.765 745.023C603.243 747.645 585.246 748.485 560.415 747.056C562.792 730.411 563.654 717.621 563.316 707.906C562.965 697.819 561.318 690.824 558.532 686.263C555.65 681.545 551.612 679.541 547.051 679.396C542.67 679.257 537.914 680.833 533.325 682.899C529.667 684.546 525.927 686.596 522.396 688.532C521.478 689.035 520.573 689.531 519.688 690.009C515.304 692.382 511.45 694.306 508.335 695.069C506.794 695.447 505.606 695.494 504.712 695.285C503.889 695.093 503.221 694.665 502.667 693.828C502.073 692.932 501.561 691.484 501.321 689.212C501.082 686.954 501.126 684.008 501.535 680.226Z" fill="#F7C10C" stroke="black" stroke-width="4"/>
<path d="M509.237 654.391L509.236 654.336L509.229 654.282C505.348 624.02 497.328 603.199 487.742 588.289C478.153 573.373 467.033 564.432 457.054 557.885C453.762 555.725 450.571 553.812 447.618 552.041C446.117 551.142 444.678 550.279 443.318 549.439C439.244 546.923 435.859 544.603 433.399 542.023C430.962 539.469 429.454 536.685 429.099 533.218C428.754 529.845 429.49 525.726 431.702 520.426C441.414 520.218 450.405 519.311 458.528 518.491C460.145 518.328 461.728 518.169 463.276 518.019C472.81 517.094 480.93 516.547 487.579 517.727C494.161 518.896 499.235 521.746 502.773 527.625C506.354 533.576 508.428 542.734 508.681 556.656C508.917 569.7 513.424 581.703 521.99 594.78C530.542 607.835 543.178 622.016 559.731 639.42C560.005 639.708 560.279 639.997 560.554 640.286C570.127 650.35 580.314 661.059 589.136 671.594C598.221 682.444 605.796 693.037 609.762 702.481C613.732 711.934 613.985 719.957 608.928 726.001C603.887 732.027 593.34 736.405 574.841 737.999C575.106 706.586 571.282 688.797 565.186 679.065C562.08 674.105 558.375 671.222 554.332 669.723C550.312 668.233 546.043 668.143 541.849 668.617C538.449 669.001 535.03 669.766 531.799 670.489C531.059 670.655 530.328 670.818 529.609 670.974C525.705 671.824 522.19 672.451 519.205 672.197C516.285 671.948 513.939 670.865 512.242 668.293C510.498 665.647 509.363 661.314 509.237 654.391Z" fill="#ECE655" stroke="black" stroke-width="2"/>
<path d="M15.9205 677.671C-3.45408 656.085 -14.9087 631.169 -17.8233 608.386C-20.7388 585.596 -15.106 565.099 -0.538751 552.024C6.77 545.464 12.3754 544.275 17.294 546.126C22.4614 548.069 27.3646 553.504 32.7843 561.54C36.0629 566.401 39.4222 572.036 43.0879 578.186C45.4603 582.166 47.961 586.361 50.6514 590.701C57.4586 601.683 65.3895 613.432 75.2505 624.419C85.1115 635.405 95.9388 644.554 106.124 652.504C110.149 655.646 114.051 658.584 117.752 661.371C123.471 665.678 128.713 669.624 133.192 673.407C140.598 679.66 145.473 685.12 146.85 690.466C148.159 695.556 146.374 701 139.066 707.561C124.499 720.636 103.514 724.029 81.1705 718.677C58.834 713.327 35.2952 699.257 15.9205 677.671Z" fill="#33A60B" fill-opacity="0.61" stroke="black" stroke-width="3"/>
<path d="M27.3395 672.282C14.7568 658.263 7.40869 642.028 5.64308 627.164C3.87686 612.295 7.6976 598.94 17.244 590.372C22.0472 586.061 25.5635 585.375 28.5403 586.468C31.7597 587.65 34.8772 591.057 38.4043 596.316C40.5306 599.487 42.6967 603.151 45.0688 607.164C46.61 609.772 48.2381 612.526 49.9988 615.388C54.4287 622.588 59.6074 630.306 66.0761 637.513C72.5449 644.72 79.6603 650.699 86.3417 655.878C88.9973 657.937 91.5605 659.852 93.9868 661.665C97.7213 664.455 101.131 667.003 104.055 669.459C108.904 673.531 111.955 676.997 112.783 680.325C113.549 683.402 112.49 686.825 107.686 691.136C98.14 699.704 84.4519 702.065 69.8592 698.709C55.2716 695.353 39.9222 686.3 27.3395 672.282Z" fill="#42FF00" fill-opacity="0.99" stroke="black" stroke-width="3"/>
<path d="M7.82712 396.294C-4.23189 391.881 -13.1917 392.295 -20.2832 395.05C-27.1045 397.7 -31.9696 402.448 -35.9874 406.369C-36.0894 406.469 -36.1908 406.568 -36.2917 406.666C-38.3746 408.698 -40.1808 410.435 -41.9793 411.695C-43.7521 412.938 -45.3618 413.604 -47.0183 413.652C-50.2331 413.745 -54.665 411.506 -61.5724 403.123C-42.201 351.757 9.96883 324.11 55.1801 340.657C67.7744 345.266 79.3935 340.822 89.7529 333.509C97.4985 328.041 104.836 320.746 111.589 314.032C113.811 311.823 115.97 309.677 118.059 307.68C122.337 303.589 126.315 300.122 130.04 297.812C133.78 295.492 136.999 294.508 139.843 294.951C142.62 295.384 145.533 297.262 148.504 301.807C151.429 306.281 154.271 313.141 156.977 323.118C147.377 348.625 121.769 371.089 92.5245 385.133C63.0289 399.297 30.4844 404.587 7.82712 396.294Z" fill="#EE9919" stroke="black" stroke-width="4"/>
<path d="M14.4735 386.274C4.14723 382.494 -4.40292 382.159 -11.6648 383.623C-18.9123 385.084 -24.8086 388.324 -29.838 391.585C-31.3469 392.564 -32.8076 393.564 -34.1959 394.516C-35.0971 395.133 -35.9678 395.73 -36.8014 396.286C-38.9559 397.722 -40.9245 398.932 -42.7987 399.746C-44.6669 400.558 -46.3873 400.953 -48.0535 400.815C-49.5332 400.692 -51.0448 400.143 -52.6413 398.97C-46.1833 382.069 -30.8713 368.626 -12.1101 361.17C6.89431 353.617 29.3202 352.259 49.3944 359.606C60.0474 363.505 71.1089 359.036 81.5939 351.659C90.3821 345.476 98.9824 337.093 106.865 329.409C108.406 327.907 109.92 326.431 111.402 325.004C115.954 320.622 120.204 316.7 124.077 313.803C127.979 310.885 131.356 309.121 134.169 308.86C135.544 308.732 136.772 308.965 137.882 309.596C139.002 310.231 140.069 311.31 141.048 312.982C142.99 316.3 144.482 321.788 145.354 330.138C121.491 359.223 93.5774 376.149 72.3062 384.205C59.5773 389.025 50.5858 391.514 42.0679 391.828C33.5678 392.141 25.4521 390.292 14.4735 386.274Z" fill="#FF5C00" stroke="black" stroke-width="2"/>
<path d="M294.414 420.1C302.339 429.764 313.394 435.95 324.642 440.367C333.287 443.762 342.206 446.166 350.013 448.271C352.339 448.898 354.567 449.498 356.659 450.09C361.265 451.394 365.176 452.645 368.162 454.037C371.211 455.459 372.915 456.861 373.602 458.249C374.194 459.443 374.245 461.094 372.646 463.731C371.018 466.418 367.85 469.804 362.619 474.093C321.002 508.223 263.335 505.995 233.715 469.878C204.096 433.761 213.201 376.774 254.818 342.644C260.049 338.354 263.989 335.91 266.943 334.839C269.842 333.788 271.451 334.161 272.506 334.975C273.732 335.921 274.773 337.866 275.571 341.134C276.352 344.335 276.813 348.415 277.19 353.188C277.361 355.355 277.513 357.657 277.673 360.062C278.208 368.129 278.82 377.346 280.456 386.488C282.586 398.384 286.488 410.436 294.414 420.1Z" fill="#807979" fill-opacity="0.76" stroke="black" stroke-width="4"/>
<path d="M278.629 425.184C283.814 431.507 290.819 435.775 297.932 438.95C303.398 441.39 308.995 443.21 313.914 444.81C315.383 445.288 316.792 445.747 318.119 446.196C321.025 447.18 323.52 448.114 325.45 449.114C327.405 450.127 328.621 451.129 329.166 452.167C329.66 453.11 329.689 454.261 328.785 455.882C327.856 457.547 325.995 459.595 322.89 462.141C298.22 482.373 262.152 479.131 242.326 454.956C222.5 430.78 226.382 394.776 251.053 374.544C254.157 371.998 256.53 370.574 258.345 369.989C260.111 369.42 261.234 369.673 262.062 370.342C262.973 371.08 263.718 372.469 264.329 374.584C264.931 376.673 265.359 379.302 265.755 382.344C265.936 383.734 266.109 385.205 266.29 386.74C266.897 391.876 267.586 397.721 268.909 403.559C270.63 411.157 273.444 418.862 278.629 425.184Z" fill="#C4C4C4" fill-opacity="0.73" stroke="black" stroke-width="2"/>
<path d="M267.67 622.497C267.66 614.3 269.968 607.765 273.915 602.62C277.898 597.428 283.633 593.543 290.607 590.827C304.595 585.38 323.304 584.746 341.761 587.532C360.199 590.315 378.159 596.478 390.603 604.405C396.828 608.371 401.587 612.724 404.37 617.234C407.132 621.713 407.919 626.286 406.36 630.865C404.708 635.717 402.281 639.168 399.334 641.625C396.378 644.088 392.811 645.624 388.776 646.507C380.635 648.29 370.877 647.366 361.035 646.284C360.477 646.223 359.918 646.161 359.359 646.099C350.223 645.086 341.062 644.071 333.7 645.446C329.746 646.185 326.175 647.632 323.36 650.239C320.533 652.859 318.613 656.517 317.737 661.42C316.116 670.505 310.907 684.193 303.521 699.653C296.152 715.077 286.673 732.146 276.597 747.952C266.514 763.767 255.867 778.267 246.167 788.583C241.315 793.744 236.746 797.808 232.647 800.468C228.509 803.153 225.072 804.264 222.389 803.916C221.057 803.744 220.244 803.279 219.728 802.657C219.193 802.014 218.839 801.036 218.771 799.588C218.631 796.634 219.701 792.299 221.78 786.663C224.603 779.008 229.103 769.405 234.267 758.386C236.677 753.243 239.232 747.791 241.829 742.085C249.955 724.224 258.422 704.003 263.852 683.42C269.266 662.894 271.686 641.913 267.67 622.497Z" fill="#850BE4" fill-opacity="0.91" stroke="black" stroke-width="3"/>
<path d="M282.627 621.476C282.659 615.6 284.292 610.933 287.034 607.264C289.807 603.553 293.794 600.756 298.663 598.785C308.443 594.828 321.547 594.304 334.513 596.27C347.459 598.233 360.04 602.646 368.722 608.333C373.066 611.178 376.352 614.289 378.255 617.492C380.14 620.663 380.649 623.877 379.572 627.092C378.413 630.547 376.717 632.778 374.708 634.201C372.686 635.633 370.202 636.348 367.304 636.515C361.424 636.852 354.311 634.921 347.041 632.801C346.536 632.653 346.03 632.505 345.523 632.356C338.907 630.417 332.213 628.455 326.8 628.487C323.842 628.505 321.056 629.113 318.819 630.814C316.557 632.535 315.095 635.193 314.444 638.835C313.266 645.434 309.69 656.067 304.647 668.347C299.617 680.595 293.17 694.381 286.307 707.248C279.439 720.126 272.183 732.029 265.543 740.544C262.218 744.807 259.096 748.158 256.299 750.357C253.449 752.598 251.219 753.423 249.582 753.211C248.738 753.101 248.279 752.811 247.998 752.46C247.694 752.082 247.46 751.461 247.419 750.452C247.336 748.382 248.084 745.286 249.571 741.184C251.588 735.622 254.79 728.649 258.473 720.629C260.196 716.878 262.023 712.897 263.884 708.725C275.441 682.814 288.142 649.798 282.627 621.476Z" fill="#717FFC" stroke="black" stroke-width="3"/>
<path d="M372.195 261.478C366.197 264.954 362.207 270.779 359.336 276.93C356.762 282.444 355.021 288.374 353.564 293.336C353.397 293.907 353.233 294.466 353.072 295.009C352.283 297.673 351.574 299.944 350.841 301.679C350.475 302.544 350.122 303.229 349.778 303.743C349.427 304.264 349.137 304.53 348.929 304.652C348.762 304.75 348.633 304.77 348.457 304.733C348.232 304.685 347.851 304.518 347.296 304.041C346.169 303.07 344.707 301.153 342.823 297.901C327.923 272.189 333.866 241.375 355.439 228.875C377.011 216.374 406.701 226.539 421.6 252.252C423.479 255.494 424.35 257.717 424.552 259.187C424.65 259.901 424.576 260.338 424.469 260.601C424.373 260.838 424.214 261.028 423.92 261.196C423.226 261.595 421.914 261.793 419.789 261.665C417.734 261.542 415.212 261.139 412.316 260.616C411.436 260.458 410.525 260.289 409.586 260.114C404.41 259.154 398.414 258.041 392.452 257.712C385.411 257.324 378.183 258.008 372.195 261.478Z" fill="#6F18A5" fill-opacity="0.57" stroke="black" stroke-width="3"/>
<path d="M367.547 250.438C363.422 252.828 360.637 256.845 358.619 261.129C356.686 265.231 355.408 269.686 354.349 273.378C354.302 273.543 354.255 273.706 354.209 273.867C353.661 275.776 353.174 277.44 352.677 278.756C352.163 280.119 351.706 280.914 351.308 281.26C351.142 281.404 351.043 281.419 350.987 281.419C350.915 281.419 350.739 281.391 350.434 281.169C349.789 280.7 348.909 279.624 347.745 277.615C338.627 261.879 343.478 242.114 358.457 233.435C373.436 224.755 392.996 230.374 402.115 246.11C403.276 248.114 403.748 249.413 403.809 250.206C403.837 250.578 403.769 250.759 403.715 250.846C403.664 250.927 403.563 251.03 403.314 251.121C402.748 251.327 401.755 251.353 400.259 251.161C398.805 250.975 397.048 250.61 395.05 250.179C394.775 250.119 394.495 250.059 394.212 249.997C390.416 249.174 385.913 248.196 381.425 247.903C376.606 247.588 371.668 248.05 367.547 250.438Z" fill="#EE12D8" fill-opacity="0.77" stroke="black" stroke-width="2"/>
</g>
<defs>
<clipPath id="clip0">
<rect width="1252" height="700" fill="white"/>
</clipPath>
</defs>
</svg>
