<svg width="451" height="198" viewBox="0 0 451 198" fill="none" xmlns="http://www.w3.org/2000/svg">
<path opacity="0.59" d="M255.371 94.1437C250.675 109.379 242.98 120.501 233.242 128.236C223.468 136 211.552 140.417 198.359 142.084C171.932 145.423 140.539 137.7 111.633 123.985C82.7387 110.275 56.537 90.6749 40.4741 70.5012C24.3385 50.2363 18.8291 29.9831 29.8316 14.4087C35.5205 6.35582 41.2353 1.9674 46.8681 0.131317C52.4819 -1.69858 58.2251 -1.06184 64.1231 1.35031C76.0468 6.22682 88.1667 18.1591 100.12 30.479C101.068 31.4558 102.014 32.4346 102.959 33.4114C107.923 38.5453 112.834 43.6247 117.621 48.0849C123.311 53.3867 128.922 57.9082 134.363 60.6494C139.819 63.3979 145.283 64.442 150.523 62.4744C155.727 60.5205 160.356 55.7267 164.469 47.6153C172.435 31.9023 191.122 7.70918 215.448 -19.4909C239.741 -46.6533 269.555 -76.7024 299.668 -104.105C329.789 -131.514 360.17 -156.239 385.598 -172.777C398.319 -181.05 409.741 -187.236 419.235 -190.696C428.823 -194.192 436.052 -194.761 440.682 -192.414C443.051 -191.213 444.357 -189.762 444.948 -188.138C445.55 -186.488 445.502 -184.418 444.675 -181.826C443.001 -176.581 438.347 -169.832 431.315 -161.627C422.441 -151.274 410.087 -138.937 395.944 -124.815C387.721 -116.604 378.894 -107.79 369.794 -98.4104C320.521 -47.6207 263.605 19.4117 255.371 94.1437Z" fill="#4B8DDB" stroke="black" stroke-width="3"/>
</svg>
