<svg width="118" height="214" viewBox="0 0 118 214" fill="none" xmlns="http://www.w3.org/2000/svg">
<path d="M67.4926 106.943C69.5217 91.801 65.4588 76.9637 59.3663 63.4851C53.9052 51.4033 46.7339 40.2509 40.6796 30.8358C39.9843 29.7545 39.3037 28.6961 38.6422 27.6619C35.4094 22.608 32.6563 18.1713 30.7877 14.3989C28.874 10.5355 28.1013 7.76921 28.3389 5.92799C28.4459 5.0991 28.7553 4.48345 29.2877 3.98032C29.8536 3.44546 30.7937 2.92534 32.3337 2.55208C35.4625 1.79372 40.49 1.77423 48.077 2.79092C108.153 10.8414 150.46 63.9557 142.78 121.27C135.099 178.584 80.301 218.686 20.2248 210.635C12.6559 209.621 7.87381 208.156 5.12174 206.422C3.77629 205.574 3.00459 204.718 2.58666 203.902C2.17784 203.103 2.03285 202.2 2.1836 201.11C2.50271 198.802 4.11711 195.849 7.02916 192.162C9.8949 188.532 13.7939 184.46 18.3056 179.921C19.6848 178.534 21.1191 177.105 22.5934 175.637C30.7051 167.558 40.0287 158.271 48.0712 147.987C57.5793 135.828 65.4652 122.072 67.4926 106.943Z" fill="#9D5DC5" fill-opacity="0.38" stroke="black" stroke-width="4"/>
</svg>
