<svg width="230" height="368" viewBox="0 0 230 368" fill="none" xmlns="http://www.w3.org/2000/svg">
<path d="M227.165 184C227.165 284.516 145.68 366 45.1646 366C32.5094 366 23.1368 365.315 16.3831 363.955C9.573 362.585 5.76542 360.592 3.8283 358.274C1.99566 356.08 1.54223 353.219 2.45725 349.201C3.38466 345.129 5.64912 340.211 8.81927 334.303C10.5735 331.034 12.5839 327.503 14.7448 323.708C28.0848 300.279 47.1646 266.768 47.1646 222.5C47.1646 196.79 40.7417 169.952 32.7847 144.271C28.9514 131.9 24.7501 119.761 20.7248 108.131C20.5697 107.682 20.4148 107.235 20.2602 106.788C16.0896 94.7359 12.1353 83.2544 8.97474 72.5748C5.81278 61.8904 3.46816 52.0826 2.49478 43.3836C1.52 34.6718 1.9386 27.2195 4.17 21.1671C6.37552 15.1849 10.3916 10.4554 16.8891 7.17824C23.4516 3.86822 32.6313 2 45.1646 2C145.68 2 227.165 83.4842 227.165 184Z" fill="#FF5C00" fill-opacity="0.74" stroke="black" stroke-width="4"/>
</svg>
