<svg width="261" height="160" viewBox="0 0 261 160" fill="none" xmlns="http://www.w3.org/2000/svg">
<path d="M259.481 76.5003C259.481 107.341 237.456 127.824 206.574 140.67C175.713 153.507 136.435 158.5 103 158.5C69.9134 158.5 34.3148 141.708 11.7154 115.581C-10.8029 89.5483 -20.3335 54.3739 -1.74964 17.3145C3.6578 10.573 8.22508 6.35361 12.1766 4.03477C16.1074 1.72805 19.3652 1.33365 22.277 2.13292C25.2596 2.95161 28.1135 5.08463 31.0656 8.30719C34.0116 11.5231 36.9295 15.681 40.0875 20.3607C40.6929 21.2577 41.3062 22.1731 41.9292 23.1029C54.1868 41.3969 70.1981 65.2934 103 65.2934C119.938 65.2934 138.327 62.091 156.297 58.32C161.784 57.1684 167.226 55.9655 172.579 54.7823C184.818 52.0768 196.592 49.4742 207.377 47.8246C222.921 45.4471 235.993 45.1297 245.132 49.1096C249.645 51.0746 253.193 54.0861 255.635 58.4598C258.09 62.8581 259.481 68.7346 259.481 76.5003Z" fill="#FC0C0C" fill-opacity="0.57" stroke="black" stroke-width="3"/>
</svg>
