<svg width="527" height="174" viewBox="0 0 527 174" fill="none" xmlns="http://www.w3.org/2000/svg">
<path opacity="0.59" d="M174.303 125.281C175.864 106.185 182.717 91.4983 193.364 80.4886C204.075 69.4128 218.744 61.9372 236.054 57.5424C270.718 48.7416 315.565 52.4029 358.917 63.7427C402.248 75.0769 443.798 94.0072 471.838 115.467C485.865 126.202 496.387 137.477 502.12 148.632C507.823 159.728 508.756 170.611 503.826 180.883C498.713 191.535 492.431 197.81 485.43 201.027C478.414 204.252 470.404 204.53 461.609 202.668C443.9 198.918 423.741 186.668 403.77 173.982C402.185 172.974 400.6 171.965 399.019 170.957C390.712 165.662 382.5 160.428 374.651 155.917C365.317 150.554 356.363 146.135 348.215 143.825C340.077 141.519 332.456 141.237 326.02 144.544C319.554 147.866 314.75 154.568 311.718 165.179C305.914 185.488 288.315 217.975 264.015 255.154C239.758 292.266 208.956 333.855 176.918 372.309C144.873 410.774 111.641 446.043 82.5285 470.55C67.9668 482.809 54.5032 492.317 42.7853 498.196C30.9894 504.115 21.3379 506.164 14.2002 504.125C10.5425 503.079 8.2661 501.52 6.94237 499.646C5.62598 497.783 5.06482 495.344 5.36031 492.159C5.96434 485.648 10.0739 476.751 16.9931 465.589C25.7137 451.521 38.5001 434.445 53.1478 414.883C61.6719 403.5 70.8264 391.274 80.1768 378.31C105.514 343.179 132.126 302.826 150.858 259.819C169.561 216.878 180.462 171.168 174.303 125.281Z" fill="#4B8DDB" stroke="black" stroke-width="4"/>
</svg>
