<svg width="157" height="266" viewBox="0 0 157 266" fill="none" xmlns="http://www.w3.org/2000/svg">
<path d="M284.5 77.5C284.5 115.152 270.89 161.819 241.382 199.045C211.912 236.225 166.581 264 103 264C70.9899 264 53.5034 258.784 44.9128 250.27C36.4662 241.898 36.224 229.879 40.1437 214.856C42.8427 204.511 47.4149 193.088 52.2922 180.903C54.5008 175.385 56.7719 169.711 58.9599 163.91C65.9362 145.415 71.9999 125.771 71.9999 106.5C71.9999 87.0829 62.7669 66.8851 51.1779 47.6728C45.3703 38.0448 38.9355 28.6092 32.7094 19.5942C31.9446 18.4869 31.1832 17.3862 30.4265 16.2924C25.0128 8.46626 19.8428 0.992538 15.4416 -6.02423C10.42 -14.0299 6.45941 -21.3486 4.29635 -27.8171C2.12914 -34.298 1.84198 -39.6984 3.8395 -44.0359C5.82353 -48.3441 10.2362 -51.9746 18.3256 -54.5301C26.4212 -57.0875 38.0011 -58.5 53.9571 -58.5C117.812 -58.5 175.549 -43.1599 217.271 -18.4367C259.027 6.30595 284.5 40.2736 284.5 77.5Z" fill="#66FF31" fill-opacity="0.45" stroke="black" stroke-width="3"/>
</svg>
