<svg width="451" height="257" viewBox="0 0 451 257" fill="none" xmlns="http://www.w3.org/2000/svg">
<path d="M219.887 85.1307C226.304 74.6618 234.811 68.7737 244.701 66.4498C254.689 64.1025 266.221 65.3629 278.604 69.4661C303.387 77.6779 331.128 97.1258 355.698 120.49C380.255 143.843 401.495 170.965 413.339 194.365C419.266 206.077 422.782 216.743 423.261 225.476C423.737 234.164 421.215 240.744 415.274 244.75C409.02 248.966 403.261 250.215 397.87 249.405C392.436 248.589 387.187 245.652 382.048 241.143C371.728 232.09 362.291 217.108 353.127 201.993C352.387 200.773 351.649 199.552 350.912 198.333C342.606 184.588 334.475 171.135 326.183 162.972C321.658 158.518 316.892 155.438 311.828 154.896C306.674 154.344 301.575 156.454 296.513 161.577C287.025 171.18 266.484 183.404 240.238 195.818C214.058 208.202 182.396 220.687 150.838 230.863C119.271 241.041 87.8656 248.889 62.1897 252.023C49.3482 253.591 37.9995 253.972 28.8074 252.901C19.5744 251.826 12.7462 249.311 8.6903 245.304C6.61108 243.249 5.57828 241.421 5.26325 239.797C4.95638 238.215 5.29366 236.637 6.34608 234.965C8.53497 231.487 13.6257 227.901 21.2679 224.027C30.8791 219.154 43.9459 214.09 58.9326 208.283C67.6654 204.899 77.0502 201.262 86.7831 197.263C113.109 186.446 141.777 173.052 166.158 155.05C190.496 137.08 210.649 114.454 219.887 85.1307Z" fill="#613683" stroke="black" stroke-width="3"/>
</svg>
