<svg width="212" height="383" viewBox="0 0 212 383" fill="none" xmlns="http://www.w3.org/2000/svg">
<path d="M87.5476 134.34C87.1928 109.509 100.39 88.3571 119.549 71.6291C138.761 54.8533 163.786 42.7042 186.424 35.9989C197.736 32.6483 208.394 30.6743 217.375 30.1471C226.428 29.6158 233.508 30.572 237.862 32.8214C240.001 33.9259 241.368 35.2818 242.084 36.8221C242.793 38.3494 242.972 40.2976 242.288 42.8115C240.887 47.9641 235.98 55.0306 226.018 64.1225C213.977 75.1127 195.939 93.8375 180.731 111.544C173.127 120.398 166.2 129.032 161.075 136.341C158.513 139.994 156.379 143.349 154.831 146.256C153.313 149.109 152.25 151.731 152.031 153.862C151.571 158.341 152.523 162.08 154.625 165.179C156.698 168.234 159.784 170.517 163.35 172.321C169.706 175.538 178.122 177.476 186.341 179.369C187.245 179.577 188.146 179.784 189.042 179.993C198.285 182.145 206.979 184.416 212.965 188.403C215.911 190.365 218.104 192.684 219.394 195.526C220.678 198.359 221.145 201.888 220.342 206.415C219.179 212.972 215.706 220.933 210.291 229.903C204.892 238.846 197.639 248.669 189.044 258.933C171.855 279.458 149.397 301.628 125.945 321.868C102.492 342.11 78.0989 360.375 57.0569 373.113C46.5326 379.484 36.894 384.443 28.6619 387.58C20.358 390.745 13.7659 391.945 9.20537 391.136C6.95249 390.736 5.60223 389.947 4.79471 388.993C3.98877 388.04 3.50916 386.67 3.50003 384.679C3.48121 380.568 5.46415 374.618 9.14356 366.88C13.7708 357.148 20.7647 345.196 28.7929 331.477C33.4751 323.476 38.509 314.874 43.6304 305.76C57.4678 281.136 71.807 252.996 81.0031 223.67C90.1775 194.412 94.2736 163.848 87.5476 134.34Z" fill="#A39F49" fill-opacity="0.34" stroke="black" stroke-width="4"/>
</svg>
