<svg width="106" height="108" viewBox="0 0 106 108" fill="none" xmlns="http://www.w3.org/2000/svg">
<path d="M57.4552 51.8219C62.2862 56.8294 68.5776 59.6928 74.8679 61.486C80.5009 63.0919 86.2474 63.8681 91.0578 64.5179C91.6111 64.5927 92.152 64.6657 92.6789 64.7382C95.2614 65.0933 97.4737 65.4289 99.2247 65.8638C101.04 66.3145 102.06 66.8065 102.524 67.2829C102.714 67.4788 102.783 67.6443 102.804 67.8138C102.828 68.0079 102.803 68.3414 102.574 68.8726C102.097 69.9778 100.909 71.5534 98.6347 73.7472C80.8287 90.9253 51.9935 90.031 34.2308 71.6191C16.4682 53.2073 16.609 24.3585 34.415 7.18035C36.6778 4.99734 38.309 3.93245 39.4538 3.56525C39.9974 3.39089 40.3693 3.39431 40.6285 3.4551C40.8809 3.51428 41.1407 3.65426 41.4226 3.94875C42.0429 4.59668 42.6268 5.83885 43.1589 7.8103C43.6783 9.7348 44.0932 12.1288 44.5177 14.884C44.6467 15.7215 44.7762 16.5901 44.9095 17.4843C45.6445 22.4151 46.4956 28.1245 48.0248 33.6897C49.8332 40.2711 52.6303 46.8206 57.4552 51.8219Z" fill="#9D5DC5" fill-opacity="0.38" stroke="black" stroke-width="3"/>
</svg>
