<svg width="160" height="221" viewBox="0 0 160 221" fill="none" xmlns="http://www.w3.org/2000/svg">
<path d="M19.9204 140.671C0.545794 119.085 -10.9088 94.1688 -13.8234 71.3861C-16.7389 48.596 -11.1061 28.0991 3.46113 15.0241C10.7699 8.46396 16.3753 7.27546 21.2938 9.12565C26.4613 11.0695 31.3644 16.5043 36.7842 24.5399C40.0628 29.4008 43.422 35.0363 47.0878 41.1861C49.4602 45.166 51.9609 49.3612 54.6513 53.7013C61.4585 64.6828 69.3894 76.4321 79.2504 87.4185C89.1114 98.4049 99.9387 107.554 110.124 115.504C114.149 118.646 118.051 121.584 121.752 124.371C127.471 128.678 132.712 132.624 137.192 136.407C144.598 142.66 149.473 148.12 150.849 153.466C152.159 158.556 150.374 164 143.066 170.561C128.498 183.636 107.514 187.029 85.1704 181.677C62.8339 176.327 39.295 162.257 19.9204 140.671Z" fill="#66FF31" fill-opacity="0.61" stroke="black" stroke-width="3"/>
</svg>
