<svg width="163" height="208" viewBox="0 0 163 208" fill="none" xmlns="http://www.w3.org/2000/svg">
<path d="M134.776 218.586C62.9218 257.905 -19.4219 244.769 -49.4084 189.97C-79.4121 135.14 -47.8522 55.376 23.9614 16.0788C32.9463 11.1622 39.676 8.46076 44.648 7.54048C49.6092 6.6222 52.6132 7.5061 54.4532 9.47358C56.3602 11.5126 57.2742 14.9666 57.4045 19.7862C57.5338 24.5675 56.8896 30.467 55.9082 37.176C55.4112 40.5735 54.8281 44.1739 54.2204 47.9267C52.4384 58.9306 50.4441 71.2451 49.7851 83.5994C48.9008 100.179 50.4032 117.017 58.1245 131.127C65.8472 145.24 79.1066 155.375 93.3821 163.258C104.304 169.289 115.912 174.048 126.175 178.255C129.317 179.543 132.333 180.779 135.164 181.984C141.231 184.567 146.431 186.997 150.279 189.489C154.164 192.005 156.456 194.449 157.059 196.973C157.641 199.407 156.724 202.284 153.211 205.896C149.701 209.505 143.763 213.668 134.776 218.586Z" fill="#FC0C0C" fill-opacity="0.46" stroke="black" stroke-width="2"/>
</svg>
