<svg width="293" height="216" viewBox="0 0 293 216" fill="none" xmlns="http://www.w3.org/2000/svg">
<path d="M238.186 63.937C241.057 63.018 243.898 62.2442 246.711 62.1464C267.231 61.4329 285.387 73.3988 300.144 91.075C314.885 108.733 326.041 131.876 332.538 152.954C335.785 163.486 337.855 173.463 338.636 181.938C339.421 190.464 338.881 197.288 337.077 201.636C336.184 203.789 335.03 205.219 333.687 206.014C332.372 206.794 330.698 207.07 328.526 206.577C324.054 205.563 317.811 201.361 309.644 192.562C299.624 181.767 282.676 165.787 266.746 152.482C258.781 145.829 251.042 139.821 244.531 135.458C241.277 133.277 238.302 131.488 235.739 130.233C233.227 129.003 230.931 128.192 229.095 128.166C225.232 128.111 222.121 129.379 219.648 131.651C217.216 133.885 215.473 137.019 214.146 140.599C211.766 147.02 210.571 155.334 209.39 163.555C209.261 164.454 209.132 165.351 209.002 166.244C207.659 175.451 206.172 184.269 203.029 190.587C201.472 193.718 199.555 196.13 197.143 197.675C194.754 199.205 191.752 199.965 187.855 199.58C182.195 199.021 175.208 196.326 167.251 191.819C159.32 187.325 150.537 181.094 141.307 173.591C122.851 158.586 102.709 138.573 84.163 117.419C65.6171 96.2639 48.7034 74.0093 36.6875 54.5356C30.6785 44.7971 25.9138 35.7853 22.78 27.9758C19.6293 20.1243 18.1979 13.6581 18.6639 8.9442C18.8928 6.62837 19.5211 5.10345 20.3676 4.12222C21.1919 3.1668 22.3535 2.57542 23.9813 2.37221C27.378 1.94821 32.4119 3.25999 39.0433 6.05512C47.6962 9.70224 58.4907 15.6039 70.9255 22.4024C77.4449 25.9667 84.4151 29.7775 91.7639 33.6391C113.036 44.817 137.312 56.3205 162.402 63.0688C187.494 69.8177 213.502 71.8393 238.186 63.937Z" fill="#A39F49" stroke="black" stroke-width="3"/>
</svg>
