<svg width="224" height="281" viewBox="0 0 224 281" fill="none" xmlns="http://www.w3.org/2000/svg" >
<path d="M46.6786 266.678C30.5454 257.12 18.2129 240.254 9.42552 219.167C0.64156 198.089 -4.56521 172.872 -6.49626 146.743C-10.3611 94.4476 -1.09017 38.7511 18.5941 5.524C28.435 -11.0875 39.6994 -22.1733 52.036 -28.8957C64.3698 -35.6165 77.8429 -38.0129 92.1637 -37.1388C120.858 -35.3873 152.866 -20.5141 185.618 -1.1109C193.781 3.72471 199.132 7.84277 202.237 11.4559C205.327 15.0512 206.086 18.0114 205.387 20.6439C204.664 23.3665 202.314 26.036 198.472 28.8427C194.655 31.6311 189.533 34.4377 183.527 37.4941C181.072 38.7436 178.473 40.032 175.765 41.3749C152.09 53.1138 120.038 69.006 102.083 99.3134C92.0571 116.238 87.6307 137.689 85.5647 159.631C84.0501 175.718 83.7992 192.156 83.5677 207.332C83.4834 212.851 83.4018 218.204 83.2628 223.312C83.0016 232.908 82.5391 241.638 81.4871 249.041C80.4326 256.461 78.7985 262.442 76.2579 266.602C73.7519 270.706 70.3905 273.01 65.7515 273.224C61.0169 273.443 54.8109 271.495 46.6786 266.678Z" fill="#AFA9B1" fill-opacity="0.54" stroke="black" stroke-width="2"/>
</svg>
