<svg width="546" height="506" viewBox="0 0 546 506" fill="none" xmlns="http://www.w3.org/2000/svg">
<path d="M408.793 262.769C371.448 294.682 297.484 350.818 225.434 390.211C189.394 409.916 153.964 425.359 123.904 431.54C93.757 437.739 69.6786 434.509 55.453 417.862C48.2613 409.447 45.6325 401.167 46.4211 392.972C47.2172 384.701 51.5229 376.222 58.7838 367.54C73.3351 350.139 99.1761 332.59 129.508 315.081C150.012 303.245 172.418 291.51 194.588 279.898C205.177 274.352 215.712 268.833 225.961 263.346C257.578 246.417 286.492 229.767 305.387 213.621C324.447 197.333 338.529 172.722 349.88 146.316C358.763 125.654 366.042 103.716 372.716 83.6059C374.573 78.0089 376.383 72.5536 378.168 67.3067C382.277 55.2261 386.247 44.2586 390.353 35.1333C394.474 25.9755 398.656 18.8495 403.12 14.3234C407.523 9.86002 412.012 8.08924 416.985 9.11665C422.157 10.1852 428.314 14.3594 435.703 23.0053C494.75 92.1024 482.878 199.459 408.793 262.769Z" fill="#FF3131" fill-opacity="0.64" stroke="black" stroke-width="4"/>
</svg>
